<mxfile host="65bd71144e">
    <diagram id="dPa3eCRp1KqCvTpyh3m8" name="Page-1">
        <mxGraphModel dx="1763" dy="995" grid="1" gridSize="10" guides="1" tooltips="1" connect="1" arrows="1" fold="1" page="1" pageScale="1" pageWidth="827" pageHeight="1169" math="0" shadow="0">
            <root>
                <mxCell id="0"/>
                <mxCell id="1" parent="0"/>
                <mxCell id="23" value="&lt;span style=&quot;font-size: 12px&quot;&gt;window load&lt;/span&gt;" style="edgeStyle=orthogonalEdgeStyle;rounded=0;orthogonalLoop=1;jettySize=auto;html=1;exitX=0.5;exitY=1;exitDx=0;exitDy=0;entryX=0.5;entryY=0;entryDx=0;entryDy=0;" parent="1" source="2" target="63" edge="1">
                    <mxGeometry relative="1" as="geometry">
                        <mxPoint x="260" y="80" as="targetPoint"/>
                    </mxGeometry>
                </mxCell>
                <mxCell id="2" value="" style="ellipse;fillColor=#000000;strokeColor=none;" parent="1" vertex="1">
                    <mxGeometry x="460" width="30" height="30" as="geometry"/>
                </mxCell>
                <mxCell id="25" value="startGame" style="swimlane;fontStyle=4;align=center;verticalAlign=top;childLayout=stackLayout;horizontal=1;startSize=30;horizontalStack=0;resizeParent=1;resizeParentMax=0;resizeLast=0;collapsible=0;marginBottom=0;html=1;rounded=1;absoluteArcSize=1;arcSize=25;" parent="1" vertex="1">
                    <mxGeometry x="340" y="240" width="270" height="170" as="geometry"/>
                </mxCell>
                <mxCell id="26" value="Skjul andre skærme" style="fillColor=none;strokeColor=none;align=left;verticalAlign=middle;spacingLeft=5;fontSize=11;" parent="25" vertex="1">
                    <mxGeometry y="30" width="270" height="20" as="geometry"/>
                </mxCell>
                <mxCell id="46" value="Nulstil point og liv" style="fillColor=none;strokeColor=none;align=left;verticalAlign=middle;spacingLeft=5;fontSize=11;" parent="25" vertex="1">
                    <mxGeometry y="50" width="270" height="20" as="geometry"/>
                </mxCell>
                <mxCell id="47" value="Skriv point og liv ud" style="fillColor=none;strokeColor=none;align=left;verticalAlign=middle;spacingLeft=5;fontSize=11;" parent="25" vertex="1">
                    <mxGeometry y="70" width="270" height="20" as="geometry"/>
                </mxCell>
                <mxCell id="49" value="Start timer-animation" style="fillColor=none;strokeColor=none;align=left;verticalAlign=middle;spacingLeft=5;fontSize=11;" parent="25" vertex="1">
                    <mxGeometry y="90" width="270" height="20" as="geometry"/>
                </mxCell>
                <mxCell id="50" value="Giv random position og random delay til elementer" style="fillColor=none;strokeColor=none;align=left;verticalAlign=middle;spacingLeft=5;fontSize=11;" parent="25" vertex="1">
                    <mxGeometry y="110" width="270" height="20" as="geometry"/>
                </mxCell>
                <mxCell id="52" value="Start fald -animationer på elementer" style="fillColor=none;strokeColor=none;align=left;verticalAlign=middle;spacingLeft=5;fontSize=11;" parent="25" vertex="1">
                    <mxGeometry y="130" width="270" height="20" as="geometry"/>
                </mxCell>
                <mxCell id="147" value="Start fald -animationer på elementer" style="fillColor=none;strokeColor=none;align=left;verticalAlign=middle;spacingLeft=5;fontSize=11;" parent="25" vertex="1">
                    <mxGeometry y="150" width="270" height="20" as="geometry"/>
                </mxCell>
                <mxCell id="53" value="&lt;span style=&quot;font-size: 12px&quot;&gt;Klik på start_knap&lt;/span&gt;" style="edgeStyle=orthogonalEdgeStyle;rounded=0;orthogonalLoop=1;jettySize=auto;html=1;exitX=0.5;exitY=1;exitDx=0;exitDy=0;entryX=0.5;entryY=0;entryDx=0;entryDy=0;" parent="1" source="65" target="25" edge="1">
                    <mxGeometry relative="1" as="geometry">
                        <mxPoint x="260" y="157" as="sourcePoint"/>
                    </mxGeometry>
                </mxCell>
                <mxCell id="55" value="Vand" style="swimlane;fontStyle=4;align=center;verticalAlign=top;childLayout=stackLayout;horizontal=1;startSize=30;horizontalStack=0;resizeParent=1;resizeParentMax=0;resizeLast=0;collapsible=0;marginBottom=0;html=1;rounded=1;absoluteArcSize=1;arcSize=25;" parent="1" vertex="1">
                    <mxGeometry x="10" y="440" width="190" height="130" as="geometry"/>
                </mxCell>
                <mxCell id="56" value="Tæl op på point" style="fillColor=none;strokeColor=none;align=left;verticalAlign=middle;spacingLeft=5;fontSize=11;" parent="55" vertex="1">
                    <mxGeometry y="30" width="190" height="20" as="geometry"/>
                </mxCell>
                <mxCell id="57" value="Skriv point ud" style="fillColor=none;strokeColor=none;align=left;verticalAlign=middle;spacingLeft=5;fontSize=11;" parent="55" vertex="1">
                    <mxGeometry y="50" width="190" height="20" as="geometry"/>
                </mxCell>
                <mxCell id="117" value="Afspil lyd (vandplask)" style="fillColor=none;strokeColor=none;align=left;verticalAlign=middle;spacingLeft=5;fontSize=11;" parent="55" vertex="1">
                    <mxGeometry y="70" width="190" height="20" as="geometry"/>
                </mxCell>
                <mxCell id="144" value="Stop falde-animation på container" style="fillColor=none;strokeColor=none;align=left;verticalAlign=middle;spacingLeft=5;fontSize=11;" parent="55" vertex="1">
                    <mxGeometry y="90" width="190" height="20" as="geometry"/>
                </mxCell>
                <mxCell id="145" value="Start forsvind-animation på sprite" style="fillColor=none;strokeColor=none;align=left;verticalAlign=middle;spacingLeft=5;fontSize=11;" parent="55" vertex="1">
                    <mxGeometry y="110" width="190" height="20" as="geometry"/>
                </mxCell>
                <mxCell id="63" value="Water the Plants" style="swimlane;fontStyle=4;align=center;verticalAlign=top;childLayout=stackLayout;horizontal=1;startSize=30;horizontalStack=0;resizeParent=1;resizeParentMax=0;resizeLast=0;collapsible=0;marginBottom=0;html=1;rounded=1;absoluteArcSize=1;arcSize=25;" parent="1" vertex="1">
                    <mxGeometry x="405" y="80" width="140" height="70" as="geometry"/>
                </mxCell>
                <mxCell id="64" value="Skjul andre skærme" style="fillColor=none;strokeColor=none;align=left;verticalAlign=middle;spacingLeft=5;fontSize=11;" parent="63" vertex="1">
                    <mxGeometry y="30" width="140" height="20" as="geometry"/>
                </mxCell>
                <mxCell id="65" value="Vis start skærm" style="fillColor=none;strokeColor=none;align=left;verticalAlign=middle;spacingLeft=5;fontSize=11;" parent="63" vertex="1">
                    <mxGeometry y="50" width="140" height="20" as="geometry"/>
                </mxCell>
                <mxCell id="68" value="VandReset" style="swimlane;fontStyle=4;align=center;verticalAlign=top;childLayout=stackLayout;horizontal=1;startSize=37;horizontalStack=0;resizeParent=1;resizeParentMax=0;resizeLast=0;collapsible=0;marginBottom=0;html=1;rounded=1;absoluteArcSize=1;arcSize=25;" parent="1" vertex="1">
                    <mxGeometry x="10" y="651" width="190" height="97" as="geometry"/>
                </mxCell>
                <mxCell id="69" value="Vis element igen" style="fillColor=none;strokeColor=none;align=left;verticalAlign=middle;spacingLeft=5;fontSize=11;" parent="68" vertex="1">
                    <mxGeometry y="37" width="190" height="20" as="geometry"/>
                </mxCell>
                <mxCell id="70" value="Ny random position" style="fillColor=none;strokeColor=none;align=left;verticalAlign=middle;spacingLeft=5;fontSize=11;" parent="68" vertex="1">
                    <mxGeometry y="57" width="190" height="20" as="geometry"/>
                </mxCell>
                <mxCell id="71" value="Genstart fald -animation" style="fillColor=none;strokeColor=none;align=left;verticalAlign=middle;spacingLeft=5;fontSize=11;" parent="68" vertex="1">
                    <mxGeometry y="77" width="190" height="20" as="geometry"/>
                </mxCell>
                <mxCell id="72" value="" style="edgeStyle=orthogonalEdgeStyle;rounded=0;orthogonalLoop=1;jettySize=auto;html=1;exitX=0.5;exitY=1;exitDx=0;exitDy=0;entryX=0.5;entryY=0;entryDx=0;entryDy=0;" parent="1" edge="1">
                    <mxGeometry x="-0.0123" y="-45" relative="1" as="geometry">
                        <mxPoint x="102" y="570" as="sourcePoint"/>
                        <mxPoint x="102" y="651" as="targetPoint"/>
                        <mxPoint as="offset"/>
                    </mxGeometry>
                </mxCell>
                <mxCell id="146" value="forsvind-animation færdig" style="edgeLabel;html=1;align=center;verticalAlign=middle;resizable=0;points=[];fontSize=11;" parent="72" vertex="1" connectable="0">
                    <mxGeometry x="-0.2654" relative="1" as="geometry">
                        <mxPoint as="offset"/>
                    </mxGeometry>
                </mxCell>
                <mxCell id="73" value="Klik på vand" style="edgeStyle=orthogonalEdgeStyle;rounded=0;orthogonalLoop=1;jettySize=auto;html=1;exitX=0;exitY=0;exitDx=0;exitDy=0;entryX=0.5;entryY=0;entryDx=0;entryDy=0;" parent="1" target="55" edge="1">
                    <mxGeometry x="0.3382" relative="1" as="geometry">
                        <mxPoint as="offset"/>
                        <mxPoint x="340" y="337" as="sourcePoint"/>
                    </mxGeometry>
                </mxCell>
                <mxCell id="75" value="clickIld" style="swimlane;fontStyle=4;align=center;verticalAlign=top;childLayout=stackLayout;horizontal=1;startSize=37;horizontalStack=0;resizeParent=1;resizeParentMax=0;resizeLast=0;collapsible=0;marginBottom=0;html=1;rounded=1;absoluteArcSize=1;arcSize=25;" parent="1" vertex="1">
                    <mxGeometry x="640" y="450" width="190" height="137" as="geometry"/>
                </mxCell>
                <mxCell id="76" value="Tæl ned på liv" style="fillColor=none;strokeColor=none;align=left;verticalAlign=middle;spacingLeft=5;fontSize=11;" parent="75" vertex="1">
                    <mxGeometry y="37" width="190" height="20" as="geometry"/>
                </mxCell>
                <mxCell id="77" value="Opdater antal liv på siden" style="fillColor=none;strokeColor=none;align=left;verticalAlign=middle;spacingLeft=5;fontSize=11;" parent="75" vertex="1">
                    <mxGeometry y="57" width="190" height="20" as="geometry"/>
                </mxCell>
                <mxCell id="118" value="Afspil lyd (tændstik bliver tændt)" style="fillColor=none;strokeColor=none;align=left;verticalAlign=middle;spacingLeft=5;fontSize=11;" parent="75" vertex="1">
                    <mxGeometry y="77" width="190" height="20" as="geometry"/>
                </mxCell>
                <mxCell id="125" value="Stoppe fald-animation på container" style="fillColor=none;strokeColor=none;align=left;verticalAlign=middle;spacingLeft=5;fontSize=11;" parent="75" vertex="1">
                    <mxGeometry y="97" width="190" height="20" as="geometry"/>
                </mxCell>
                <mxCell id="126" value="Start forsvind-animation på sprite" style="fillColor=none;strokeColor=none;align=left;verticalAlign=middle;spacingLeft=5;fontSize=11;" parent="75" vertex="1">
                    <mxGeometry y="117" width="190" height="20" as="geometry"/>
                </mxCell>
                <mxCell id="79" value="IldReset" style="swimlane;fontStyle=4;align=center;verticalAlign=top;childLayout=stackLayout;horizontal=1;startSize=37;horizontalStack=0;resizeParent=1;resizeParentMax=0;resizeLast=0;collapsible=0;marginBottom=0;html=1;rounded=1;absoluteArcSize=1;arcSize=25;" parent="1" vertex="1">
                    <mxGeometry x="640" y="651" width="190" height="97" as="geometry"/>
                </mxCell>
                <mxCell id="80" value="Ny random position " style="fillColor=none;strokeColor=none;align=left;verticalAlign=middle;spacingLeft=5;fontSize=11;" parent="79" vertex="1">
                    <mxGeometry y="37" width="190" height="20" as="geometry"/>
                </mxCell>
                <mxCell id="82" value="Vis element igen " style="fillColor=none;strokeColor=none;align=left;verticalAlign=middle;spacingLeft=5;fontSize=11;" parent="79" vertex="1">
                    <mxGeometry y="57" width="190" height="20" as="geometry"/>
                </mxCell>
                <mxCell id="133" value="Genstart fald-animation" style="fillColor=none;strokeColor=none;align=left;verticalAlign=middle;spacingLeft=5;fontSize=11;" parent="79" vertex="1">
                    <mxGeometry y="77" width="190" height="20" as="geometry"/>
                </mxCell>
                <mxCell id="83" value="Forsvind-animation færdig" style="edgeStyle=orthogonalEdgeStyle;rounded=0;orthogonalLoop=1;jettySize=auto;html=1;entryX=0.5;entryY=0;entryDx=0;entryDy=0;" parent="1" target="79" edge="1">
                    <mxGeometry relative="1" as="geometry">
                        <mxPoint x="735" y="590" as="sourcePoint"/>
                    </mxGeometry>
                </mxCell>
                <mxCell id="87" value="&lt;span style=&quot;font-size: 12px&quot;&gt;timer-animation færdig&lt;/span&gt;" style="edgeStyle=orthogonalEdgeStyle;rounded=0;orthogonalLoop=1;jettySize=auto;html=1;entryX=0.5;entryY=0;entryDx=0;entryDy=0;exitX=1;exitY=0.75;exitDx=0;exitDy=0;" parent="1" source="46" target="88" edge="1">
                    <mxGeometry x="-0.6654" relative="1" as="geometry">
                        <mxPoint x="740.0000000000002" y="120" as="sourcePoint"/>
                        <mxPoint x="765" y="87" as="targetPoint"/>
                        <mxPoint as="offset"/>
                    </mxGeometry>
                </mxCell>
                <mxCell id="88" value="endGame" style="swimlane;fontStyle=4;align=center;verticalAlign=top;childLayout=stackLayout;horizontal=1;startSize=30;horizontalStack=0;resizeParent=1;resizeParentMax=0;resizeLast=0;collapsible=0;marginBottom=0;html=1;rounded=1;absoluteArcSize=1;arcSize=25;" parent="1" vertex="1">
                    <mxGeometry x="990" y="400" width="170" height="70" as="geometry"/>
                </mxCell>
                <mxCell id="89" value="Fjern alle animationer" style="fillColor=none;strokeColor=none;align=left;verticalAlign=middle;spacingLeft=5;fontSize=11;" parent="88" vertex="1">
                    <mxGeometry y="30" width="170" height="20" as="geometry"/>
                </mxCell>
                <mxCell id="90" value="Fjern alle eventListerner-ere" style="fillColor=none;strokeColor=none;align=left;verticalAlign=middle;spacingLeft=5;fontSize=11;" parent="88" vertex="1">
                    <mxGeometry y="50" width="170" height="20" as="geometry"/>
                </mxCell>
                <mxCell id="92" value="Success" style="swimlane;fontStyle=4;align=center;verticalAlign=top;childLayout=stackLayout;horizontal=1;startSize=30;horizontalStack=0;resizeParent=1;resizeParentMax=0;resizeLast=0;collapsible=0;marginBottom=0;html=1;rounded=1;absoluteArcSize=1;arcSize=25;fontSize=12;" parent="1" vertex="1">
                    <mxGeometry x="1140" y="530" width="150" height="70" as="geometry"/>
                </mxCell>
                <mxCell id="93" value="Skjul andre skærme" style="fillColor=none;strokeColor=none;align=left;verticalAlign=middle;spacingLeft=5;fontSize=11;" parent="92" vertex="1">
                    <mxGeometry y="30" width="150" height="20" as="geometry"/>
                </mxCell>
                <mxCell id="137" value="Vis succes skærm" style="fillColor=none;strokeColor=none;align=left;verticalAlign=middle;spacingLeft=5;fontSize=11;" parent="92" vertex="1">
                    <mxGeometry y="50" width="150" height="20" as="geometry"/>
                </mxCell>
                <mxCell id="94" style="edgeStyle=orthogonalEdgeStyle;rounded=0;orthogonalLoop=1;jettySize=auto;html=1;entryX=0.5;entryY=0;entryDx=0;entryDy=0;" parent="1" target="102" edge="1">
                    <mxGeometry relative="1" as="geometry">
                        <mxPoint x="1185" y="620" as="targetPoint"/>
                        <mxPoint x="1178" y="600" as="sourcePoint"/>
                    </mxGeometry>
                </mxCell>
                <mxCell id="95" value="gameOver" style="swimlane;fontStyle=4;align=center;verticalAlign=top;childLayout=stackLayout;horizontal=1;startSize=30;horizontalStack=0;resizeParent=1;resizeParentMax=0;resizeLast=0;collapsible=0;marginBottom=0;html=1;rounded=1;absoluteArcSize=1;arcSize=25;fontSize=12;" parent="1" vertex="1">
                    <mxGeometry x="900" y="529" width="140" height="70" as="geometry"/>
                </mxCell>
                <mxCell id="96" value="Skjul andre skærme" style="fillColor=none;strokeColor=none;align=left;verticalAlign=middle;spacingLeft=5;fontSize=11;" parent="95" vertex="1">
                    <mxGeometry y="30" width="140" height="20" as="geometry"/>
                </mxCell>
                <mxCell id="134" value="Vis gameover skærm" style="fillColor=none;strokeColor=none;align=left;verticalAlign=middle;spacingLeft=5;fontSize=11;" parent="95" vertex="1">
                    <mxGeometry y="50" width="140" height="20" as="geometry"/>
                </mxCell>
                <mxCell id="98" value="0 liv" style="edgeStyle=orthogonalEdgeStyle;rounded=0;orthogonalLoop=1;jettySize=auto;html=1;exitX=0.5;exitY=1;exitDx=0;exitDy=0;entryX=0.5;entryY=0;entryDx=0;entryDy=0;" parent="1" source="90" target="95" edge="1">
                    <mxGeometry relative="1" as="geometry">
                        <mxPoint x="974" y="530" as="targetPoint"/>
                        <Array as="points">
                            <mxPoint x="1075" y="510"/>
                            <mxPoint x="970" y="510"/>
                        </Array>
                    </mxGeometry>
                </mxCell>
                <mxCell id="99" style="edgeStyle=orthogonalEdgeStyle;rounded=0;orthogonalLoop=1;jettySize=auto;html=1;exitX=0;exitY=0;exitDx=0;exitDy=0;entryX=0.25;entryY=0;entryDx=0;entryDy=0;" parent="1" source="90" target="95" edge="1">
                    <mxGeometry relative="1" as="geometry">
                        <mxPoint x="939" y="530" as="targetPoint"/>
                    </mxGeometry>
                </mxCell>
                <mxCell id="100" value="[ingen liv tilbage]" style="edgeLabel;html=1;align=center;verticalAlign=middle;resizable=0;points=[];" parent="99" vertex="1" connectable="0">
                    <mxGeometry x="0.2849" relative="1" as="geometry">
                        <mxPoint as="offset"/>
                    </mxGeometry>
                </mxCell>
                <mxCell id="101" value="" style="ellipse;html=1;shape=endState;fillColor=#000000;strokeColor=#000000;" parent="1" vertex="1">
                    <mxGeometry x="929" y="688.5" width="30" height="30" as="geometry"/>
                </mxCell>
                <mxCell id="102" value="" style="ellipse;html=1;shape=endState;fillColor=#000000;strokeColor=#000000;" parent="1" vertex="1">
                    <mxGeometry x="1163" y="700" width="30" height="30" as="geometry"/>
                </mxCell>
                <mxCell id="109" style="edgeStyle=orthogonalEdgeStyle;rounded=0;orthogonalLoop=1;jettySize=auto;html=1;entryX=0.5;entryY=0;entryDx=0;entryDy=0;exitX=0.5;exitY=1;exitDx=0;exitDy=0;" parent="1" edge="1">
                    <mxGeometry relative="1" as="geometry">
                        <mxPoint x="944" y="600" as="sourcePoint"/>
                        <mxPoint x="944" y="687.5" as="targetPoint"/>
                    </mxGeometry>
                </mxCell>
                <mxCell id="110" style="edgeStyle=orthogonalEdgeStyle;rounded=0;orthogonalLoop=1;jettySize=auto;html=1;exitX=1;exitY=0.5;exitDx=0;exitDy=0;entryX=0.213;entryY=0.014;entryDx=0;entryDy=0;entryPerimeter=0;" parent="1" source="76" target="88" edge="1">
                    <mxGeometry relative="1" as="geometry">
                        <Array as="points">
                            <mxPoint x="860" y="527"/>
                            <mxPoint x="860" y="380"/>
                            <mxPoint x="1026" y="380"/>
                        </Array>
                    </mxGeometry>
                </mxCell>
                <mxCell id="111" value="[ingen liv tilbage]" style="edgeLabel;html=1;align=center;verticalAlign=middle;resizable=0;points=[];" parent="110" vertex="1" connectable="0">
                    <mxGeometry x="-0.0005" y="1" relative="1" as="geometry">
                        <mxPoint x="55" y="-2" as="offset"/>
                    </mxGeometry>
                </mxCell>
                <mxCell id="127" style="edgeStyle=orthogonalEdgeStyle;html=1;entryX=1;entryY=0.75;entryDx=0;entryDy=0;fontSize=11;rounded=0;" parent="1" target="69" edge="1">
                    <mxGeometry relative="1" as="geometry">
                        <Array as="points">
                            <mxPoint x="430" y="703"/>
                        </Array>
                        <mxPoint x="430" y="410" as="sourcePoint"/>
                    </mxGeometry>
                </mxCell>
                <mxCell id="128" value="Fald-animation på vand&lt;br&gt;har kørt 1 gang" style="edgeLabel;html=1;align=center;verticalAlign=middle;resizable=0;points=[];fontSize=11;" parent="127" vertex="1" connectable="0">
                    <mxGeometry x="0.6026" relative="1" as="geometry">
                        <mxPoint as="offset"/>
                    </mxGeometry>
                </mxCell>
                <mxCell id="130" style="edgeStyle=orthogonalEdgeStyle;html=1;entryX=0;entryY=0.75;entryDx=0;entryDy=0;fontSize=11;rounded=0;" parent="1" target="80" edge="1">
                    <mxGeometry relative="1" as="geometry">
                        <Array as="points">
                            <mxPoint x="470" y="703"/>
                        </Array>
                        <mxPoint x="470" y="410" as="sourcePoint"/>
                    </mxGeometry>
                </mxCell>
                <mxCell id="131" value="Fald-animation på bad&lt;br&gt;&amp;nbsp;har kørt 1 gang" style="edgeLabel;html=1;align=center;verticalAlign=middle;resizable=0;points=[];fontSize=11;" parent="130" vertex="1" connectable="0">
                    <mxGeometry x="0.4093" y="-1" relative="1" as="geometry">
                        <mxPoint x="59" y="3" as="offset"/>
                    </mxGeometry>
                </mxCell>
                <mxCell id="135" style="edgeStyle=orthogonalEdgeStyle;html=1;entryX=1;entryY=0.25;entryDx=0;entryDy=0;fontSize=11;rounded=0;" parent="1" source="134" target="26" edge="1">
                    <mxGeometry relative="1" as="geometry">
                        <Array as="points">
                            <mxPoint x="1000" y="760"/>
                            <mxPoint x="1350" y="760"/>
                            <mxPoint x="1350" y="275"/>
                        </Array>
                    </mxGeometry>
                </mxCell>
                <mxCell id="136" value="Klik på replaygo" style="edgeLabel;html=1;align=center;verticalAlign=middle;resizable=0;points=[];fontSize=11;" parent="135" vertex="1" connectable="0">
                    <mxGeometry x="-0.9401" relative="1" as="geometry">
                        <mxPoint as="offset"/>
                    </mxGeometry>
                </mxCell>
                <mxCell id="138" style="edgeStyle=orthogonalEdgeStyle;rounded=0;html=1;exitX=0.5;exitY=1;exitDx=0;exitDy=0;entryX=0.5;entryY=0;entryDx=0;entryDy=0;fontSize=11;" parent="1" source="90" target="92" edge="1">
                    <mxGeometry relative="1" as="geometry">
                        <Array as="points">
                            <mxPoint x="1075" y="510"/>
                            <mxPoint x="1215" y="510"/>
                        </Array>
                    </mxGeometry>
                </mxCell>
                <mxCell id="139" value="[points &amp;gt; 1}" style="edgeLabel;html=1;align=center;verticalAlign=middle;resizable=0;points=[];fontSize=11;" parent="138" vertex="1" connectable="0">
                    <mxGeometry x="-0.1717" relative="1" as="geometry">
                        <mxPoint as="offset"/>
                    </mxGeometry>
                </mxCell>
                <mxCell id="142" style="edgeStyle=orthogonalEdgeStyle;rounded=0;html=1;exitX=1;exitY=0.25;exitDx=0;exitDy=0;entryX=0.5;entryY=0;entryDx=0;entryDy=0;fontSize=11;" parent="1" source="49" target="75" edge="1">
                    <mxGeometry relative="1" as="geometry"/>
                </mxCell>
                <mxCell id="143" value="Klik på ild" style="edgeLabel;html=1;align=center;verticalAlign=middle;resizable=0;points=[];fontSize=11;" parent="142" vertex="1" connectable="0">
                    <mxGeometry x="0.3382" relative="1" as="geometry">
                        <mxPoint as="offset"/>
                    </mxGeometry>
                </mxCell>
                <mxCell id="148" style="edgeStyle=orthogonalEdgeStyle;html=1;entryX=1.002;entryY=0.062;entryDx=0;entryDy=0;entryPerimeter=0;fontSize=11;rounded=0;exitX=0.75;exitY=1;exitDx=0;exitDy=0;" parent="1" source="137" target="25" edge="1">
                    <mxGeometry relative="1" as="geometry">
                        <Array as="points">
                            <mxPoint x="1253" y="670"/>
                            <mxPoint x="1320" y="670"/>
                            <mxPoint x="1320" y="251"/>
                        </Array>
                    </mxGeometry>
                </mxCell>
                <mxCell id="149" value="Klik på replaysu" style="edgeLabel;html=1;align=center;verticalAlign=middle;resizable=0;points=[];fontSize=11;" parent="148" vertex="1" connectable="0">
                    <mxGeometry x="-0.9331" y="1" relative="1" as="geometry">
                        <mxPoint as="offset"/>
                    </mxGeometry>
                </mxCell>
            </root>
        </mxGraphModel>
    </diagram>
</mxfile>